<svg width="44" height="44" viewBox="0 0 130 130" fill="none" xmlns="http://www.w3.org/2000/svg">
  <!-- RotaGen Icon — Light version — text as outlines, no font dependency -->
  <defs>
    <clipPath id="frame">
      <rect x="0" y="0" width="130" height="130" rx="20"/>
    </clipPath>
    <clipPath id="cells">
      <rect x="7" y="38" width="116" height="85" rx="17"/>
    </clipPath>
  </defs>
  <g clip-path="url(#frame)">
    <rect x="0" y="0" width="130" height="130" fill="#dbeafe"/>
    <rect x="2" y="2" width="126" height="126" rx="19" fill="none" stroke="#2563EB" stroke-width="2"/>
    <!-- ROTA in near-black, as outlines -->
    <path d="M20.37392578125 28.18408203125V15.81591796875H25.70302734375Q27.08095703125 15.81591796875 28.114404296875 16.318115234375Q29.1478515625 16.8203125 29.724755859375 17.762451171875Q30.30166015625 18.70458984375 30.30166015625 20.01611328125Q30.30166015625 21.34423828125 29.7123046875 22.25732421875Q29.164453125 23.1123046875 28.19326171875 23.5771484375L30.71669921875 28.18408203125H27.06435546875L24.88955078125 24.10009765625H23.72744140625V28.18408203125ZM23.72744140625 21.49365234375H24.90615234375Q25.50380859375 21.49365234375 25.9271484375 21.34423828125Q26.35048828125 21.19482421875 26.574609375 20.87109375Q26.79873046875 20.54736328125 26.79873046875 20.01611328125Q26.79873046875 19.48486328125 26.574609375 19.15283203125Q26.35048828125 18.82080078125 25.9271484375 18.6630859375Q25.50380859375 18.50537109375 24.90615234375 18.50537109375H23.72744140625Z M38.323339843750006 28.35009765625Q36.638281250000006 28.35009765625 35.272802734375006 27.61962890625Q33.907324218750006 26.88916015625 33.110449218750006 25.473876953125Q32.313574218750006 24.05859375 32.313574218750006 22.00830078125Q32.313574218750006 19.94140625 33.110449218750006 18.52197265625Q33.907324218750006 17.1025390625 35.272802734375006 16.376220703125Q36.638281250000006 15.64990234375 38.323339843750006 15.64990234375Q40.008398437500006 15.64990234375 41.369726562500006 16.376220703125Q42.731054687500006 17.1025390625 43.532080078125006 18.52197265625Q44.333105468750006 19.94140625 44.333105468750006 22.00830078125Q44.333105468750006 24.06689453125 43.532080078125006 25.482177734375Q42.731054687500006 26.8974609375 41.369726562500006 27.623779296875Q40.008398437500006 28.35009765625 38.323339843750006 28.35009765625ZM38.323339843750006 25.42822265625Q39.161718750000006 25.42822265625 39.730322265625006 25.033935546875Q40.298925781250006 24.6396484375 40.589453125000006 23.8759765625Q40.879980468750006 23.1123046875 40.879980468750006 22.00830078125Q40.879980468750006 20.89599609375 40.589453125000006 20.128173828125Q40.298925781250006 19.3603515625 39.730322265625006 18.966064453125Q39.161718750000006 18.57177734375 38.323339843750006 18.57177734375Q37.493261718750006 18.57177734375 36.924658203125006 18.966064453125Q36.356054687500006 19.3603515625 36.061376953125006 20.128173828125Q35.766699218750006 20.89599609375 35.766699218750006 22.00830078125Q35.766699218750006 23.1123046875 36.061376953125006 23.8759765625Q36.356054687500006 24.6396484375 36.924658203125006 25.033935546875Q37.493261718750006 25.42822265625 38.323339843750006 25.42822265625Z M46.17900390625 18.52197265625V15.81591796875H56.92021484375V18.52197265625H53.2263671875V28.18408203125H49.8728515625V18.52197265625Z M58.56689453125 28.18408203125 62.576171875 15.81591796875H67.158203125L71.31689453125 28.18408203125H67.51513671875L66.80126953125 25.81005859375H62.99951171875L62.31884765625 28.18408203125ZM66.05419921875 23.30322265625Q65.60595703125 21.7841796875 65.20751953125 20.140625Q65.0166015625 19.34375 64.833984375 18.55517578125Q64.65966796875 19.34375 64.49365234375 20.140625Q64.14501953125 21.7841796875 63.71337890625 23.30322265625Z" fill="#0f172a"/>
    <!-- GEN in brand blue, as outlines -->
    <path d="M79.13935546875 28.35009765625Q77.3380859375 28.35009765625 75.972607421875 27.582275390625Q74.60712890625 26.814453125 73.84345703125 25.39501953125Q73.07978515625 23.9755859375 73.07978515625 22.02490234375Q73.07978515625 19.98291015625 73.897412109375 18.559326171875Q74.7150390625 17.1357421875 76.08466796875 16.392822265625Q77.454296875 15.64990234375 79.12275390625 15.64990234375Q80.21845703125 15.64990234375 81.160595703125 15.961181640625Q82.102734375 16.2724609375 82.833203125 16.84521484375Q83.563671875 17.41796875 84.007763671875 18.194091796875Q84.45185546875 18.97021484375 84.55146484375 19.89990234375H81.16474609375Q81.0900390625 19.58447265625 80.919873046875 19.33544921875Q80.74970703125 19.08642578125 80.496533203125 18.916259765625Q80.243359375 18.74609375 79.915478515625 18.658935546875Q79.58759765625 18.57177734375 79.18916015625 18.57177734375Q78.35078125 18.57177734375 77.753125 18.974365234375Q77.15546875 19.376953125 76.844189453125 20.140625Q76.53291015625 20.904296875 76.53291015625 21.97509765625Q76.53291015625 23.0625 76.83173828125 23.83447265625Q77.13056640625 24.6064453125 77.715771484375 25.017333984375Q78.3009765625 25.42822265625 79.17255859375 25.42822265625Q79.93623046875 25.42822265625 80.446728515625 25.2041015625Q80.9572265625 24.97998046875 81.21455078125 24.56494140625Q81.44697265625 24.18310546875 81.46357421875 23.66845703125H79.22236328125V21.27783203125H84.70087890625V22.98779296875Q84.70087890625 24.68115234375 83.98701171875 25.880615234375Q83.27314453125 27.080078125 82.015576171875 27.715087890625Q80.7580078125 28.35009765625 79.13935546875 28.35009765625Z M86.9203125 28.18408203125V15.81591796875H95.8353515625V18.52197265625H90.273828125V20.61376953125H95.3705078125V23.25341796875H90.273828125V25.47802734375H95.8021484375V28.18408203125Z M98.13779296874999 28.18408203125V15.81591796875H101.79013671874999L104.73691406249999 20.671875Q105.11874999999999 21.302734375 105.45078124999999 21.93359375Q105.78281249999999 22.564453125 106.09824218749999 23.31982421875Q106.23105468749999 23.66015625 106.37216796874999 24.0419921875Q106.35556640624999 23.80126953125 106.33896484374999 23.53564453125Q106.27255859374999 22.65576171875 106.22275390624999 21.796630859375Q106.17294921874999 20.9375 106.17294921874999 20.34814453125V15.81591796875H109.62607421874999V28.18408203125H105.97373046874999L103.22617187499999 23.66845703125Q102.76132812499999 22.896484375 102.40854492187499 22.228271484375Q102.05576171874999 21.56005859375 101.73203124999999 20.81298828125Q101.57431640624999 20.46435546875 101.39999999999999 20.0576171875Q101.42490234374999 20.439453125 101.45810546874999 20.8212890625Q101.51621093749999 21.6845703125 101.55356445312499 22.42333984375Q101.59091796874999 23.162109375 101.59091796874999 23.66845703125V28.18408203125Z" fill="#2563EB"/>
    <rect x="7" y="38" width="116" height="85" rx="17" fill="white"/>
    <g clip-path="url(#cells)">
      <rect x="18" y="56" width="19" height="12" rx="2.5" fill="#dbeafe"/>
      <rect x="43" y="56" width="19" height="12" rx="2.5" fill="#dbeafe"/>
      <rect x="68" y="56" width="19" height="12" rx="2.5" fill="#dbeafe"/>
      <rect x="93" y="56" width="19" height="12" rx="2.5" fill="#dbeafe"/>
      <rect x="18" y="75" width="19" height="12" rx="2.5" fill="#dbeafe"/>
      <rect x="43" y="75" width="19" height="12" rx="2.5" fill="#dbeafe"/>
      <rect x="68" y="75" width="19" height="12" rx="2.5" fill="#dbeafe"/>
      <rect x="93" y="75" width="19" height="12" rx="2.5" fill="#dbeafe"/>
      <rect x="18" y="94" width="19" height="12" rx="2.5" fill="#dbeafe"/>
      <rect x="43" y="94" width="19" height="12" rx="2.5" fill="#dbeafe"/>
      <rect x="68" y="94" width="19" height="12" rx="2.5" fill="#dbeafe"/>
      <rect x="93" y="94" width="19" height="12" rx="2.5" fill="#dbeafe"/>
      <path d="M12,80 L30,80 L36,92 L43,57 L51,105 L59,80 L75,80 Q82,80 88,66 Q94,80 103,80 L118,80"
            fill="none" stroke="#2563EB" stroke-width="3.6" stroke-linecap="round" stroke-linejoin="round"/>
    </g>
  </g>
</svg>