<svg width="512" height="512" viewBox="0 0 130 130" fill="none" xmlns="http://www.w3.org/2000/svg">
  <!-- RotaGen Icon — light version — text as outlines, no font dependency -->
  <defs>
    <clipPath id="frame">
      <rect x="0" y="0" width="130" height="130" rx="20"/>
    </clipPath>
    <clipPath id="cells">
      <rect x="7" y="38" width="116" height="85" rx="17"/>
    </clipPath>
  </defs>
  <g clip-path="url(#frame)">
    <rect x="0" y="0" width="130" height="130" fill="#dbeafe"/>
    <rect x="2" y="2" width="126" height="126" rx="19" fill="none" stroke="#2563EB" stroke-width="2"/>
    <path d="M15.406152343750001 28.91162109375V15.08837890625H21.36220703125Q22.90224609375 15.08837890625 24.057275390625 15.649658203125Q25.2123046875 16.2109375 25.857080078125 17.263916015625Q26.50185546875 18.31689453125 26.50185546875 19.78271484375Q26.50185546875 21.26708984375 25.8431640625 22.28759765625Q25.230859375 23.2431640625 24.14541015625 23.7626953125L26.96572265625 28.91162109375H22.88369140625L20.45302734375 24.34716796875H19.15419921875V28.91162109375ZM19.15419921875 21.43408203125H20.47158203125Q21.13955078125 21.43408203125 21.6126953125 21.26708984375Q22.08583984375 21.10009765625 22.336328125 20.73828125Q22.58681640625 20.37646484375 22.58681640625 19.78271484375Q22.58681640625 19.18896484375 22.336328125 18.81787109375Q22.08583984375 18.44677734375 21.6126953125 18.2705078125Q21.13955078125 18.09423828125 20.47158203125 18.09423828125H19.15419921875Z M35.373144531250006 29.09716796875Q33.489843750000006 29.09716796875 31.963720703125006 28.28076171875Q30.437597656250002 27.46435546875 29.546972656250002 25.882568359375Q28.656347656250002 24.30078125 28.656347656250002 22.00927734375Q28.656347656250002 19.69921875 29.546972656250002 18.11279296875Q30.437597656250002 16.5263671875 31.963720703125006 15.714599609375Q33.489843750000006 14.90283203125 35.373144531250006 14.90283203125Q37.256445312500006 14.90283203125 38.777929687500006 15.714599609375Q40.299414062500006 16.5263671875 41.194677734375006 18.11279296875Q42.089941406250006 19.69921875 42.089941406250006 22.00927734375Q42.089941406250006 24.31005859375 41.194677734375006 25.891845703125Q40.299414062500006 27.4736328125 38.777929687500006 28.285400390625Q37.256445312500006 29.09716796875 35.373144531250006 29.09716796875ZM35.373144531250006 25.83154296875Q36.310156250000006 25.83154296875 36.945654296875006 25.390869140625Q37.581152343750006 24.9501953125 37.905859375000006 24.0966796875Q38.230566406250006 23.2431640625 38.230566406250006 22.00927734375Q38.230566406250006 20.76611328125 37.905859375000006 19.907958984375Q37.581152343750006 19.0498046875 36.945654296875006 18.609130859375Q36.310156250000006 18.16845703125 35.373144531250006 18.16845703125Q34.445410156250006 18.16845703125 33.809912109375006 18.609130859375Q33.174414062500006 19.0498046875 32.845068359375006 19.907958984375Q32.515722656250006 20.76611328125 32.515722656250006 22.00927734375Q32.515722656250006 23.2431640625 32.845068359375006 24.0966796875Q33.174414062500006 24.9501953125 33.809912109375006 25.390869140625Q34.445410156250006 25.83154296875 35.373144531250006 25.83154296875Z M44.05888671875 18.11279296875V15.08837890625H56.06376953125V18.11279296875H51.9353515625V28.91162109375H48.1873046875V18.11279296875Z M57.81005859375 28.91162109375 62.291015625 15.08837890625H67.412109375L72.06005859375 28.91162109375H67.81103515625L67.01318359375 26.25830078125H62.76416015625L62.00341796875 28.91162109375ZM66.17822265625 23.45654296875Q65.67724609375 21.7587890625 65.23193359375 19.921875Q65.0185546875 19.03125 64.814453125 18.14990234375Q64.61962890625 19.03125 64.43408203125 19.921875Q64.04443359375 21.7587890625 63.56201171875 23.45654296875Z" fill="#0f172a"/>
    <path d="M80.70869140625 29.09716796875Q78.6955078125 29.09716796875 77.169384765625 28.239013671875Q75.64326171875 27.380859375 74.78974609375 25.79443359375Q73.93623046875 24.2080078125 73.93623046875 22.02783203125Q73.93623046875 19.74560546875 74.850048828125 18.154541015625Q75.7638671875 16.5634765625 77.29462890625 15.733154296875Q78.825390625 14.90283203125 80.69013671875 14.90283203125Q81.91474609375 14.90283203125 82.967724609375 15.250732421875Q84.020703125 15.5986328125 84.837109375 16.23876953125Q85.653515625 16.87890625 86.149853515625 17.746337890625Q86.64619140625 18.61376953125 86.75751953125 19.65283203125H82.97236328125Q82.8888671875 19.30029296875 82.698681640625 19.02197265625Q82.50849609375 18.74365234375 82.225537109375 18.553466796875Q81.942578125 18.36328125 81.576123046875 18.265869140625Q81.20966796875 18.16845703125 80.76435546875 18.16845703125Q79.82734375 18.16845703125 79.159375 18.618408203125Q78.49140625 19.068359375 78.143505859375 19.921875Q77.79560546875 20.775390625 77.79560546875 21.97216796875Q77.79560546875 23.1875 78.12958984375 24.05029296875Q78.46357421875 24.9130859375 79.117626953125 25.372314453125Q79.7716796875 25.83154296875 80.74580078125 25.83154296875Q81.59931640625 25.83154296875 82.169873046875 25.5810546875Q82.7404296875 25.33056640625 83.02802734375 24.86669921875Q83.28779296875 24.43994140625 83.30634765625 23.86474609375H80.80146484375V21.19287109375H86.92451171875V23.10400390625Q86.92451171875 24.99658203125 86.12666015625 26.337158203125Q85.32880859375 27.677734375 83.923291015625 28.387451171875Q82.5177734375 29.09716796875 80.70869140625 29.09716796875Z M89.3109375 28.91162109375V15.08837890625H99.2748046875V18.11279296875H93.058984375V20.45068359375H98.7552734375V23.40087890625H93.058984375V25.88720703125H99.2376953125V28.91162109375Z M101.75400390624999 28.91162109375V15.08837890625H105.83603515624999L109.12949218749999 20.515625Q109.55624999999999 21.220703125 109.92734374999999 21.92578125Q110.29843749999999 22.630859375 110.65097656249999 23.47509765625Q110.79941406249999 23.85546875 110.95712890624999 24.2822265625Q110.93857421874999 24.01318359375 110.92001953124999 23.71630859375Q110.84580078124999 22.73291015625 110.79013671874999 21.772705078125Q110.73447265624999 20.8125 110.73447265624999 20.15380859375V15.08837890625H114.59384765624999V28.91162109375H110.51181640624999L107.44101562499999 23.86474609375Q106.92148437499999 23.001953125 106.52719726562499 22.255126953125Q106.13291015624999 21.50830078125 105.77109374999999 20.67333984375Q105.59482421874999 20.28369140625 105.39999999999999 19.8291015625Q105.42783203124999 20.255859375 105.46494140624999 20.6826171875Q105.52988281249999 21.6474609375 105.57163085937499 22.47314453125Q105.61337890624999 23.298828125 105.61337890624999 23.86474609375V28.91162109375Z" fill="#2563EB"/>
    <rect x="7" y="38" width="116" height="85" rx="17" fill="white"/>
    <g clip-path="url(#cells)">
      <rect x="18" y="56" width="19" height="12" rx="2.5" fill="#dbeafe"/>
      <rect x="43" y="56" width="19" height="12" rx="2.5" fill="#dbeafe"/>
      <rect x="68" y="56" width="19" height="12" rx="2.5" fill="#dbeafe"/>
      <rect x="93" y="56" width="19" height="12" rx="2.5" fill="#dbeafe"/>
      <rect x="18" y="75" width="19" height="12" rx="2.5" fill="#dbeafe"/>
      <rect x="43" y="75" width="19" height="12" rx="2.5" fill="#dbeafe"/>
      <rect x="68" y="75" width="19" height="12" rx="2.5" fill="#dbeafe"/>
      <rect x="93" y="75" width="19" height="12" rx="2.5" fill="#dbeafe"/>
      <rect x="18" y="94" width="19" height="12" rx="2.5" fill="#dbeafe"/>
      <rect x="43" y="94" width="19" height="12" rx="2.5" fill="#dbeafe"/>
      <rect x="68" y="94" width="19" height="12" rx="2.5" fill="#dbeafe"/>
      <rect x="93" y="94" width="19" height="12" rx="2.5" fill="#dbeafe"/>
      <path d="M12,80 L30,80 L36,92 L43,57 L51,105 L59,80 L75,80 Q82,80 88,66 Q94,80 103,80 L118,80"
            fill="none" stroke="#2563EB" stroke-width="3.6" stroke-linecap="round" stroke-linejoin="round"/>
    </g>
  </g>
</svg>