<svg width="512" height="512" viewBox="0 0 130 130" fill="none" xmlns="http://www.w3.org/2000/svg">
  <defs>
    <clipPath id="fL"><rect x="0" y="0" width="130" height="130" rx="20"/></clipPath>
    <clipPath id="wL"><rect x="7" y="38" width="116" height="85" rx="17"/></clipPath>
  </defs>
  <g clip-path="url(#fL)">
    <rect x="0" y="0" width="130" height="130" fill="#dbeafe"/>
    <rect x="2" y="2" width="126" height="126" rx="19" fill="none" stroke="#2563EB" stroke-width="2"/>
    <text x="65" y="22" text-anchor="middle" dominant-baseline="central"
          font-family="Inter, system-ui, sans-serif" font-size="22" font-weight="900" letter-spacing="1.5"
          stroke-width="0.6" paint-order="stroke fill">
      <tspan fill="#0f172a" stroke="#0f172a">ROTA</tspan><tspan fill="#2563EB" stroke="#2563EB">GEN</tspan>
    </text>
    <rect x="7" y="38" width="116" height="85" rx="17" fill="white"/>
    <g clip-path="url(#wL)">
      <rect x="18" y="56" width="19" height="12" rx="2.5" fill="#dbeafe"/>
      <rect x="43" y="56" width="19" height="12" rx="2.5" fill="#dbeafe"/>
      <rect x="68" y="56" width="19" height="12" rx="2.5" fill="#dbeafe"/>
      <rect x="93" y="56" width="19" height="12" rx="2.5" fill="#dbeafe"/>
      <rect x="18" y="75" width="19" height="12" rx="2.5" fill="#dbeafe"/>
      <rect x="43" y="75" width="19" height="12" rx="2.5" fill="#dbeafe"/>
      <rect x="68" y="75" width="19" height="12" rx="2.5" fill="#dbeafe"/>
      <rect x="93" y="75" width="19" height="12" rx="2.5" fill="#dbeafe"/>
      <rect x="18" y="94" width="19" height="12" rx="2.5" fill="#dbeafe"/>
      <rect x="43" y="94" width="19" height="12" rx="2.5" fill="#dbeafe"/>
      <rect x="68" y="94" width="19" height="12" rx="2.5" fill="#dbeafe"/>
      <rect x="93" y="94" width="19" height="12" rx="2.5" fill="#dbeafe"/>
      <path d="M12,80 L30,80 L36,92 L43,57 L51,105 L59,80 L75,80 Q82,80 88,66 Q94,80 103,80 L118,80"
            fill="none" stroke="#2563EB" stroke-width="3.6" stroke-linecap="round" stroke-linejoin="round"/>
    </g>
  </g>
</svg>
